<svg width="2500" height="1000" viewBox="0 0 2500 1000" fill="none" xmlns="http://www.w3.org/2000/svg">
<path fill-rule="evenodd" clip-rule="evenodd" d="M684.558 779.476C631.25 763.464 586.662 721.993 569.116 664.784C541.182 573.702 592.373 477.22 683.454 449.286C740.663 431.74 800.002 445.411 843.148 480.575L751.448 181.583C727.805 104.493 646.146 61.1664 569.056 84.8094L209.583 195.058C132.493 218.701 89.1664 300.361 112.809 377.45L231.855 765.605C255.498 842.695 337.157 886.022 414.247 862.379L684.558 779.476Z" fill="url(#paint0_linear_1_2)"/>
<circle cx="734.034" cy="614.61" r="143.5" transform="rotate(72.9495 734.034 614.61)" fill="#E3E6F1"/>
<g filter="url(#filter0_d_1_2)">
<rect x="191.562" y="381.452" width="70" height="322.077" rx="35" transform="rotate(-107.082 191.562 381.452)" fill="#E3E6F1"/>
</g>
<g filter="url(#filter1_d_1_2)">
<rect x="230.562" y="501.931" width="70" height="398.937" rx="35" transform="rotate(-107.082 230.562 501.931)" fill="#E3E6F1"/>
</g>
<g filter="url(#filter2_d_1_2)">
<rect x="270.562" y="627.354" width="70" height="240.009" rx="35" transform="rotate(-107.082 270.562 627.354)" fill="#E3E6F1"/>
</g>
<path d="M1086.25 413C1073.05 413 1061.15 410.7 1050.55 406.1C1039.95 401.5 1031.15 394.7 1024.15 385.7L1045.15 367.7C1051.15 374.7 1057.65 379.8 1064.65 383C1071.85 386 1079.95 387.5 1088.95 387.5C1092.55 387.5 1095.85 387.1 1098.85 386.3C1102.05 385.3 1104.75 383.9 1106.95 382.1C1109.35 380.3 1111.15 378.2 1112.35 375.8C1113.55 373.2 1114.15 370.4 1114.15 367.4C1114.15 362.2 1112.25 358 1108.45 354.8C1106.45 353.4 1103.25 351.9 1098.85 350.3C1094.65 348.5 1089.15 346.7 1082.35 344.9C1070.75 341.9 1061.25 338.5 1053.85 334.7C1046.45 330.9 1040.75 326.6 1036.75 321.8C1033.75 318 1031.55 313.9 1030.15 309.5C1028.75 304.9 1028.05 299.9 1028.05 294.5C1028.05 287.9 1029.45 281.9 1032.25 276.5C1035.25 270.9 1039.25 266.1 1044.25 262.1C1049.45 257.9 1055.45 254.7 1062.25 252.5C1069.25 250.3 1076.65 249.2 1084.45 249.2C1091.85 249.2 1099.15 250.2 1106.35 252.2C1113.75 254.2 1120.55 257.1 1126.75 260.9C1132.95 264.7 1138.15 269.2 1142.35 274.4L1124.65 293.9C1120.85 290.1 1116.65 286.8 1112.05 284C1107.65 281 1103.15 278.7 1098.55 277.1C1093.95 275.5 1089.75 274.7 1085.95 274.7C1081.75 274.7 1077.95 275.1 1074.55 275.9C1071.15 276.7 1068.25 277.9 1065.85 279.5C1063.65 281.1 1061.95 283.1 1060.75 285.5C1059.55 287.9 1058.95 290.6 1058.95 293.6C1059.15 296.2 1059.75 298.7 1060.75 301.1C1061.95 303.3 1063.55 305.2 1065.55 306.8C1067.75 308.4 1071.05 310.1 1075.45 311.9C1079.85 313.7 1085.45 315.4 1092.25 317C1102.25 319.6 1110.45 322.5 1116.85 325.7C1123.45 328.7 1128.65 332.2 1132.45 336.2C1136.45 340 1139.25 344.4 1140.85 349.4C1142.45 354.4 1143.25 360 1143.25 366.2C1143.25 375.2 1140.65 383.3 1135.45 390.5C1130.45 397.5 1123.65 403 1115.05 407C1106.45 411 1096.85 413 1086.25 413ZM1244.49 413C1229.89 413 1216.79 409.4 1205.19 402.2C1193.79 395 1184.69 385.2 1177.89 372.8C1171.29 360.4 1167.99 346.5 1167.99 331.1C1167.99 315.7 1171.29 301.8 1177.89 289.4C1184.69 277 1193.79 267.2 1205.19 260C1216.79 252.8 1229.89 249.2 1244.49 249.2C1258.49 249.2 1271.19 252.1 1282.59 257.9C1294.19 263.5 1302.99 271.2 1308.99 281L1291.89 302C1288.69 297.4 1284.59 293.2 1279.59 289.4C1274.59 285.6 1269.29 282.6 1263.69 280.4C1258.09 278.2 1252.69 277.1 1247.49 277.1C1237.89 277.1 1229.29 279.5 1221.69 284.3C1214.29 288.9 1208.39 295.3 1203.99 303.5C1199.59 311.7 1197.39 320.9 1197.39 331.1C1197.39 341.3 1199.69 350.5 1204.29 358.7C1208.89 366.7 1214.99 373.1 1222.59 377.9C1230.19 382.7 1238.59 385.1 1247.79 385.1C1253.19 385.1 1258.39 384.2 1263.39 382.4C1268.59 380.6 1273.59 377.9 1278.39 374.3C1283.19 370.7 1287.69 366.3 1291.89 361.1L1308.99 382.1C1302.59 391.1 1293.39 398.5 1281.39 404.3C1269.59 410.1 1257.29 413 1244.49 413ZM1338.14 410V252.5H1369.34V302L1366.34 290C1368.54 282.4 1372.24 275.5 1377.44 269.3C1382.84 263.1 1388.94 258.2 1395.74 254.6C1402.74 251 1409.94 249.2 1417.34 249.2C1420.74 249.2 1423.94 249.5 1426.94 250.1C1430.14 250.7 1432.64 251.4 1434.44 252.2L1426.34 285.8C1423.94 284.8 1421.24 284 1418.24 283.4C1415.44 282.6 1412.64 282.2 1409.84 282.2C1404.44 282.2 1399.24 283.3 1394.24 285.5C1389.44 287.5 1385.14 290.4 1381.34 294.2C1377.74 297.8 1374.84 302.1 1372.64 307.1C1370.44 311.9 1369.34 317.2 1369.34 323V410H1338.14ZM1514.34 413C1503.14 413 1493.34 410.4 1484.94 405.2C1476.74 400 1470.34 392.7 1465.74 383.3C1461.34 373.9 1459.14 362.7 1459.14 349.7V252.5H1490.04V341.3C1490.04 350.5 1491.44 358.5 1494.24 365.3C1497.24 371.9 1501.44 377 1506.84 380.6C1512.44 384.2 1519.14 386 1526.94 386C1532.74 386 1538.04 385.1 1542.84 383.3C1547.64 381.3 1551.74 378.6 1555.14 375.2C1558.74 371.8 1561.54 367.7 1563.54 362.9C1565.54 358.1 1566.54 352.9 1566.54 347.3V252.5H1597.44V410H1566.54V377L1571.94 373.4C1569.54 380.8 1565.44 387.5 1559.64 393.5C1554.04 399.5 1547.34 404.3 1539.54 407.9C1531.74 411.3 1523.34 413 1514.34 413ZM1640.78 410V252.5H1671.68V284.9L1666.28 288.5C1668.28 281.5 1672.18 275.1 1677.98 269.3C1683.78 263.3 1690.68 258.5 1698.68 254.9C1706.68 251.1 1714.88 249.2 1723.28 249.2C1735.28 249.2 1745.28 251.6 1753.28 256.4C1761.28 261 1767.28 268.1 1771.28 277.7C1775.28 287.3 1777.28 299.4 1777.28 314V410H1746.38V316.1C1746.38 307.1 1745.18 299.7 1742.78 293.9C1740.38 287.9 1736.68 283.6 1731.68 281C1726.68 278.2 1720.48 277 1713.08 277.4C1707.08 277.4 1701.58 278.4 1696.58 280.4C1691.58 282.2 1687.18 284.8 1683.38 288.2C1679.78 291.6 1676.88 295.6 1674.68 300.2C1672.68 304.6 1671.68 309.4 1671.68 314.6V410H1656.38C1653.78 410 1651.18 410 1648.58 410C1645.98 410 1643.38 410 1640.78 410ZM1847.4 360.8L1845.9 327.2L1921.2 252.5H1962.9L1847.4 360.8ZM1819.2 410V188H1850.1V410H1819.2ZM1925.4 410L1866 340.7L1887.9 320.6L1965 410H1925.4ZM1988.84 410V188H2019.74V410H1988.84ZM2085.54 479L2117.34 405.5L2117.64 430.1L2039.04 252.5H2075.04L2124.24 368.3C2125.24 370.3 2126.44 373.4 2127.84 377.6C2129.24 381.6 2130.44 385.6 2131.44 389.6L2123.64 391.4C2125.24 387.2 2126.74 383 2128.14 378.8C2129.74 374.6 2131.24 370.4 2132.64 366.2L2173.74 252.5H2210.34L2145.54 410L2118.84 479H2085.54Z" fill="#E3E6F1"/>
<path d="M1065.7 785V587.3H1096.6V785H1065.7ZM1033 657.5V627.5H1133.2V657.5H1033ZM1230.67 788C1215.27 788 1201.47 784.5 1189.27 777.5C1177.27 770.3 1167.77 760.6 1160.77 748.4C1153.77 736 1150.27 721.9 1150.27 706.1C1150.27 690.3 1153.77 676.3 1160.77 664.1C1167.77 651.7 1177.27 642 1189.27 635C1201.47 627.8 1215.27 624.2 1230.67 624.2C1245.87 624.2 1259.47 627.8 1271.47 635C1283.67 642 1293.27 651.7 1300.27 664.1C1307.27 676.3 1310.77 690.3 1310.77 706.1C1310.77 721.9 1307.27 736 1300.27 748.4C1293.27 760.6 1283.67 770.3 1271.47 777.5C1259.47 784.5 1245.87 788 1230.67 788ZM1230.67 759.8C1240.07 759.8 1248.47 757.5 1255.87 752.9C1263.27 748.1 1269.07 741.7 1273.27 733.7C1277.47 725.5 1279.47 716.3 1279.27 706.1C1279.47 695.7 1277.47 686.5 1273.27 678.5C1269.07 670.3 1263.27 663.9 1255.87 659.3C1248.47 654.7 1240.07 652.4 1230.67 652.4C1221.27 652.4 1212.77 654.8 1205.17 659.6C1197.77 664.2 1191.97 670.6 1187.77 678.8C1183.57 686.8 1181.57 695.9 1181.77 706.1C1181.57 716.3 1183.57 725.5 1187.77 733.7C1191.97 741.7 1197.77 748.1 1205.17 752.9C1212.77 757.5 1221.27 759.8 1230.67 759.8ZM1410.14 788C1395.74 788 1382.84 784.5 1371.44 777.5C1360.24 770.3 1351.34 760.6 1344.74 748.4C1338.14 736 1334.84 721.9 1334.84 706.1C1334.84 690.3 1338.04 676.3 1344.44 664.1C1351.04 651.7 1359.94 642 1371.14 635C1382.34 627.8 1395.04 624.2 1409.24 624.2C1417.04 624.2 1424.54 625.5 1431.74 628.1C1439.14 630.5 1445.74 633.9 1451.54 638.3C1457.34 642.5 1461.84 647.2 1465.04 652.4C1468.44 657.4 1470.14 662.5 1470.14 667.7L1461.14 668.3V563H1492.04V785H1461.14V747.5H1467.14C1467.14 752.3 1465.54 757.1 1462.34 761.9C1459.14 766.5 1454.84 770.8 1449.44 774.8C1444.24 778.8 1438.14 782 1431.14 784.4C1424.34 786.8 1417.34 788 1410.14 788ZM1414.34 761.3C1423.74 761.3 1432.04 758.9 1439.24 754.1C1446.44 749.3 1452.04 742.8 1456.04 734.6C1460.24 726.2 1462.34 716.7 1462.34 706.1C1462.34 695.5 1460.24 686.1 1456.04 677.9C1452.04 669.5 1446.44 662.9 1439.24 658.1C1432.04 653.3 1423.74 650.9 1414.34 650.9C1404.94 650.9 1396.64 653.3 1389.44 658.1C1382.24 662.9 1376.54 669.5 1372.34 677.9C1368.34 686.1 1366.34 695.5 1366.34 706.1C1366.34 716.7 1368.34 726.2 1372.34 734.6C1376.54 742.8 1382.24 749.3 1389.44 754.1C1396.64 758.9 1404.94 761.3 1414.34 761.3ZM1605.38 788C1589.98 788 1576.18 784.5 1563.98 777.5C1551.98 770.3 1542.48 760.6 1535.48 748.4C1528.48 736 1524.98 721.9 1524.98 706.1C1524.98 690.3 1528.48 676.3 1535.48 664.1C1542.48 651.7 1551.98 642 1563.98 635C1576.18 627.8 1589.98 624.2 1605.38 624.2C1620.58 624.2 1634.18 627.8 1646.18 635C1658.38 642 1667.98 651.7 1674.98 664.1C1681.98 676.3 1685.48 690.3 1685.48 706.1C1685.48 721.9 1681.98 736 1674.98 748.4C1667.98 760.6 1658.38 770.3 1646.18 777.5C1634.18 784.5 1620.58 788 1605.38 788ZM1605.38 759.8C1614.78 759.8 1623.18 757.5 1630.58 752.9C1637.98 748.1 1643.78 741.7 1647.98 733.7C1652.18 725.5 1654.18 716.3 1653.98 706.1C1654.18 695.7 1652.18 686.5 1647.98 678.5C1643.78 670.3 1637.98 663.9 1630.58 659.3C1623.18 654.7 1614.78 652.4 1605.38 652.4C1595.98 652.4 1587.48 654.8 1579.88 659.6C1572.48 664.2 1566.68 670.6 1562.48 678.8C1558.28 686.8 1556.28 695.9 1556.48 706.1C1556.28 716.3 1558.28 725.5 1562.48 733.7C1566.68 741.7 1572.48 748.1 1579.88 752.9C1587.48 757.5 1595.98 759.8 1605.38 759.8ZM1803.83 785V563H1834.73V785H1803.83ZM1883.62 785V627.5H1914.52V785H1883.62ZM1898.62 592.7C1892.02 592.7 1886.92 591 1883.32 587.6C1879.72 584.2 1877.92 579.4 1877.92 573.2C1877.92 567.4 1879.72 562.7 1883.32 559.1C1887.12 555.5 1892.22 553.7 1898.62 553.7C1905.22 553.7 1910.32 555.4 1913.92 558.8C1917.52 562.2 1919.32 567 1919.32 573.2C1919.32 579 1917.42 583.7 1913.62 587.3C1910.02 590.9 1905.02 592.7 1898.62 592.7ZM2014.52 788C2001.32 788 1989.42 785.7 1978.82 781.1C1968.22 776.5 1959.42 769.7 1952.42 760.7L1973.42 742.7C1979.42 749.7 1985.92 754.8 1992.92 758C2000.12 761 2008.22 762.5 2017.22 762.5C2020.82 762.5 2024.12 762.1 2027.12 761.3C2030.32 760.3 2033.02 758.9 2035.22 757.1C2037.62 755.3 2039.42 753.2 2040.62 750.8C2041.82 748.2 2042.42 745.4 2042.42 742.4C2042.42 737.2 2040.52 733 2036.72 729.8C2034.72 728.4 2031.52 726.9 2027.12 725.3C2022.92 723.5 2017.42 721.7 2010.62 719.9C1999.02 716.9 1989.52 713.5 1982.12 709.7C1974.72 705.9 1969.02 701.6 1965.02 696.8C1962.02 693 1959.82 688.9 1958.42 684.5C1957.02 679.9 1956.32 674.9 1956.32 669.5C1956.32 662.9 1957.72 656.9 1960.52 651.5C1963.52 645.9 1967.52 641.1 1972.52 637.1C1977.72 632.9 1983.72 629.7 1990.52 627.5C1997.52 625.3 2004.92 624.2 2012.72 624.2C2020.12 624.2 2027.42 625.2 2034.62 627.2C2042.02 629.2 2048.82 632.1 2055.02 635.9C2061.22 639.7 2066.42 644.2 2070.62 649.4L2052.92 668.9C2049.12 665.1 2044.92 661.8 2040.32 659C2035.92 656 2031.42 653.7 2026.82 652.1C2022.22 650.5 2018.02 649.7 2014.22 649.7C2010.02 649.7 2006.22 650.1 2002.82 650.9C1999.42 651.7 1996.52 652.9 1994.12 654.5C1991.92 656.1 1990.22 658.1 1989.02 660.5C1987.82 662.9 1987.22 665.6 1987.22 668.6C1987.42 671.2 1988.02 673.7 1989.02 676.1C1990.22 678.3 1991.82 680.2 1993.82 681.8C1996.02 683.4 1999.32 685.1 2003.72 686.9C2008.12 688.7 2013.72 690.4 2020.52 692C2030.52 694.6 2038.72 697.5 2045.12 700.7C2051.72 703.7 2056.92 707.2 2060.72 711.2C2064.72 715 2067.52 719.4 2069.12 724.4C2070.72 729.4 2071.52 735 2071.52 741.2C2071.52 750.2 2068.92 758.3 2063.72 765.5C2058.72 772.5 2051.92 778 2043.32 782C2034.72 786 2025.12 788 2014.52 788ZM2125.37 785V587.3H2156.27V785H2125.37ZM2092.67 657.5V627.5H2192.87V657.5H2092.67Z" fill="#B84044"/>
<defs>
<filter id="filter0_d_1_2" x="145.228" y="203.162" width="379.976" height="213.063" filterUnits="userSpaceOnUse" color-interpolation-filters="sRGB">
<feFlood flood-opacity="0" result="BackgroundImageFix"/>
<feColorMatrix in="SourceAlpha" type="matrix" values="0 0 0 0 0 0 0 0 0 0 0 0 0 0 0 0 0 0 127 0" result="hardAlpha"/>
<feMorphology radius="1" operator="dilate" in="SourceAlpha" result="effect1_dropShadow_1_2"/>
<feOffset dy="9"/>
<feGaussianBlur stdDeviation="16.75"/>
<feComposite in2="hardAlpha" operator="out"/>
<feColorMatrix type="matrix" values="0 0 0 0 0.1375 0 0 0 0 0.136354 0 0 0 0 0.136354 0 0 0 0.4 0"/>
<feBlend mode="normal" in2="BackgroundImageFix" result="effect1_dropShadow_1_2"/>
<feBlend mode="normal" in="SourceGraphic" in2="effect1_dropShadow_1_2" result="shape"/>
</filter>
<filter id="filter1_d_1_2" x="184.228" y="301.064" width="453.445" height="235.639" filterUnits="userSpaceOnUse" color-interpolation-filters="sRGB">
<feFlood flood-opacity="0" result="BackgroundImageFix"/>
<feColorMatrix in="SourceAlpha" type="matrix" values="0 0 0 0 0 0 0 0 0 0 0 0 0 0 0 0 0 0 127 0" result="hardAlpha"/>
<feMorphology radius="1" operator="dilate" in="SourceAlpha" result="effect1_dropShadow_1_2"/>
<feOffset dy="9"/>
<feGaussianBlur stdDeviation="16.75"/>
<feComposite in2="hardAlpha" operator="out"/>
<feColorMatrix type="matrix" values="0 0 0 0 0.1375 0 0 0 0 0.136354 0 0 0 0 0.136354 0 0 0 0.4 0"/>
<feBlend mode="normal" in2="BackgroundImageFix" result="effect1_dropShadow_1_2"/>
<feBlend mode="normal" in="SourceGraphic" in2="effect1_dropShadow_1_2" result="shape"/>
</filter>
<filter id="filter2_d_1_2" x="224.228" y="473.17" width="301.528" height="188.956" filterUnits="userSpaceOnUse" color-interpolation-filters="sRGB">
<feFlood flood-opacity="0" result="BackgroundImageFix"/>
<feColorMatrix in="SourceAlpha" type="matrix" values="0 0 0 0 0 0 0 0 0 0 0 0 0 0 0 0 0 0 127 0" result="hardAlpha"/>
<feMorphology radius="1" operator="dilate" in="SourceAlpha" result="effect1_dropShadow_1_2"/>
<feOffset dy="9"/>
<feGaussianBlur stdDeviation="16.75"/>
<feComposite in2="hardAlpha" operator="out"/>
<feColorMatrix type="matrix" values="0 0 0 0 0.1375 0 0 0 0 0.136354 0 0 0 0 0.136354 0 0 0 0.4 0"/>
<feBlend mode="normal" in2="BackgroundImageFix" result="effect1_dropShadow_1_2"/>
<feBlend mode="normal" in="SourceGraphic" in2="effect1_dropShadow_1_2" result="shape"/>
</filter>
<linearGradient id="paint0_linear_1_2" x1="105.5" y1="233" x2="977.5" y2="769.5" gradientUnits="userSpaceOnUse">
<stop offset="0.276042" stop-color="#A63D40"/>
<stop offset="1" stop-color="#892E31"/>
</linearGradient>
</defs>
</svg>
