<svg width="2500" height="1000" viewBox="0 0 2500 1000" fill="none" xmlns="http://www.w3.org/2000/svg">
<path fill-rule="evenodd" clip-rule="evenodd" d="M684.558 779.476C631.25 763.464 586.662 721.993 569.116 664.784C541.182 573.702 592.373 477.22 683.454 449.286C740.663 431.74 800.002 445.411 843.148 480.575L751.448 181.583C727.805 104.493 646.146 61.1664 569.056 84.8094L209.583 195.058C132.493 218.701 89.1664 300.361 112.809 377.45L231.855 765.605C255.498 842.695 337.157 886.022 414.247 862.379L684.558 779.476Z" fill="url(#paint0_linear_15_2)"/>
<path d="M865.645 574.261C843.216 502.59 766.933 462.671 695.261 485.1C623.59 507.529 583.671 583.813 606.1 655.484C628.529 727.155 704.813 767.074 776.484 744.645C848.155 722.216 888.074 645.933 865.645 574.261Z" fill="url(#paint1_linear_15_2)"/>
<g filter="url(#filter0_d_15_2)">
<path d="M204.456 304.259C185.979 309.937 175.603 329.519 181.281 347.996C186.959 366.473 206.541 376.849 225.018 371.171L465.975 297.126C484.452 291.448 494.828 271.866 489.15 253.389C483.472 234.912 463.89 224.536 445.413 230.214L204.456 304.259Z" fill="url(#paint2_linear_15_2)"/>
</g>
<g filter="url(#filter1_d_15_2)">
<path d="M243.456 424.738C224.979 430.416 214.603 449.998 220.281 468.475C225.959 486.952 245.541 497.328 264.018 491.65L578.444 395.028C596.921 389.35 607.297 369.768 601.619 351.291C595.941 332.814 576.359 322.438 557.882 328.116L243.456 424.738Z" fill="url(#paint3_linear_15_2)"/>
</g>
<g filter="url(#filter2_d_15_2)">
<path d="M283.456 550.161C264.979 555.839 254.603 575.421 260.281 593.898C265.959 612.375 285.541 622.751 304.018 617.073L466.527 567.135C485.004 561.457 495.38 541.875 489.702 523.398C484.024 504.921 464.443 494.545 445.965 500.223L283.456 550.161Z" fill="url(#paint4_linear_15_2)"/>
</g>
<path d="M1053.25 413C1040.05 413 1028.15 410.7 1017.55 406.1C1006.95 401.5 998.146 394.7 991.146 385.7L1012.15 367.7C1018.15 374.7 1024.65 379.8 1031.65 383C1038.85 386 1046.95 387.5 1055.95 387.5C1059.55 387.5 1062.85 387.1 1065.85 386.3C1069.05 385.3 1071.75 383.9 1073.95 382.1C1076.35 380.3 1078.15 378.2 1079.35 375.8C1080.55 373.2 1081.15 370.4 1081.15 367.4C1081.15 362.2 1079.25 358 1075.45 354.8C1073.45 353.4 1070.25 351.9 1065.85 350.3C1061.65 348.5 1056.15 346.7 1049.35 344.9C1037.75 341.9 1028.25 338.5 1020.85 334.7C1013.45 330.9 1007.75 326.6 1003.75 321.8C1000.75 318 998.546 313.9 997.146 309.5C995.746 304.9 995.046 299.9 995.046 294.5C995.046 287.9 996.446 281.9 999.246 276.5C1002.25 270.9 1006.25 266.1 1011.25 262.1C1016.45 257.9 1022.45 254.7 1029.25 252.5C1036.25 250.3 1043.65 249.2 1051.45 249.2C1058.85 249.2 1066.15 250.2 1073.35 252.2C1080.75 254.2 1087.55 257.1 1093.75 260.9C1099.95 264.7 1105.15 269.2 1109.35 274.4L1091.65 293.9C1087.85 290.1 1083.65 286.8 1079.05 284C1074.65 281 1070.15 278.7 1065.55 277.1C1060.95 275.5 1056.75 274.7 1052.95 274.7C1048.75 274.7 1044.95 275.1 1041.55 275.9C1038.15 276.7 1035.25 277.9 1032.85 279.5C1030.65 281.1 1028.95 283.1 1027.75 285.5C1026.55 287.9 1025.95 290.6 1025.95 293.6C1026.15 296.2 1026.75 298.7 1027.75 301.1C1028.95 303.3 1030.55 305.2 1032.55 306.8C1034.75 308.4 1038.05 310.1 1042.45 311.9C1046.85 313.7 1052.45 315.4 1059.25 317C1069.25 319.6 1077.45 322.5 1083.85 325.7C1090.45 328.7 1095.65 332.2 1099.45 336.2C1103.45 340 1106.25 344.4 1107.85 349.4C1109.45 354.4 1110.25 360 1110.25 366.2C1110.25 375.2 1107.65 383.3 1102.45 390.5C1097.45 397.5 1090.65 403 1082.05 407C1073.45 411 1063.85 413 1053.25 413ZM1211.49 413C1196.89 413 1183.79 409.4 1172.19 402.2C1160.79 395 1151.69 385.2 1144.89 372.8C1138.29 360.4 1134.99 346.5 1134.99 331.1C1134.99 315.7 1138.29 301.8 1144.89 289.4C1151.69 277 1160.79 267.2 1172.19 260C1183.79 252.8 1196.89 249.2 1211.49 249.2C1225.49 249.2 1238.19 252.1 1249.59 257.9C1261.19 263.5 1269.99 271.2 1275.99 281L1258.89 302C1255.69 297.4 1251.59 293.2 1246.59 289.4C1241.59 285.6 1236.29 282.6 1230.69 280.4C1225.09 278.2 1219.69 277.1 1214.49 277.1C1204.89 277.1 1196.29 279.5 1188.69 284.3C1181.29 288.9 1175.39 295.3 1170.99 303.5C1166.59 311.7 1164.39 320.9 1164.39 331.1C1164.39 341.3 1166.69 350.5 1171.29 358.7C1175.89 366.7 1181.99 373.1 1189.59 377.9C1197.19 382.7 1205.59 385.1 1214.79 385.1C1220.19 385.1 1225.39 384.2 1230.39 382.4C1235.59 380.6 1240.59 377.9 1245.39 374.3C1250.19 370.7 1254.69 366.3 1258.89 361.1L1275.99 382.1C1269.59 391.1 1260.39 398.5 1248.39 404.3C1236.59 410.1 1224.29 413 1211.49 413ZM1305.14 410V252.5H1336.34V302L1333.34 290C1335.54 282.4 1339.24 275.5 1344.44 269.3C1349.84 263.1 1355.94 258.2 1362.74 254.6C1369.74 251 1376.94 249.2 1384.34 249.2C1387.74 249.2 1390.94 249.5 1393.94 250.1C1397.14 250.7 1399.64 251.4 1401.44 252.2L1393.34 285.8C1390.94 284.8 1388.24 284 1385.24 283.4C1382.44 282.6 1379.64 282.2 1376.84 282.2C1371.44 282.2 1366.24 283.3 1361.24 285.5C1356.44 287.5 1352.14 290.4 1348.34 294.2C1344.74 297.8 1341.84 302.1 1339.64 307.1C1337.44 311.9 1336.34 317.2 1336.34 323V410H1305.14ZM1481.34 413C1470.14 413 1460.34 410.4 1451.94 405.2C1443.74 400 1437.34 392.7 1432.74 383.3C1428.34 373.9 1426.14 362.7 1426.14 349.7V252.5H1457.04V341.3C1457.04 350.5 1458.44 358.5 1461.24 365.3C1464.24 371.9 1468.44 377 1473.84 380.6C1479.44 384.2 1486.14 386 1493.94 386C1499.74 386 1505.04 385.1 1509.84 383.3C1514.64 381.3 1518.74 378.6 1522.14 375.2C1525.74 371.8 1528.54 367.7 1530.54 362.9C1532.54 358.1 1533.54 352.9 1533.54 347.3V252.5H1564.44V410H1533.54V377L1538.94 373.4C1536.54 380.8 1532.44 387.5 1526.64 393.5C1521.04 399.5 1514.34 404.3 1506.54 407.9C1498.74 411.3 1490.34 413 1481.34 413ZM1607.78 410V252.5H1638.68V284.9L1633.28 288.5C1635.28 281.5 1639.18 275.1 1644.98 269.3C1650.78 263.3 1657.68 258.5 1665.68 254.9C1673.68 251.1 1681.88 249.2 1690.28 249.2C1702.28 249.2 1712.28 251.6 1720.28 256.4C1728.28 261 1734.28 268.1 1738.28 277.7C1742.28 287.3 1744.28 299.4 1744.28 314V410H1713.38V316.1C1713.38 307.1 1712.18 299.7 1709.78 293.9C1707.38 287.9 1703.68 283.6 1698.68 281C1693.68 278.2 1687.48 277 1680.08 277.4C1674.08 277.4 1668.58 278.4 1663.58 280.4C1658.58 282.2 1654.18 284.8 1650.38 288.2C1646.78 291.6 1643.88 295.6 1641.68 300.2C1639.68 304.6 1638.68 309.4 1638.68 314.6V410H1623.38C1620.78 410 1618.18 410 1615.58 410C1612.98 410 1610.38 410 1607.78 410ZM1814.4 360.8L1812.9 327.2L1888.2 252.5H1929.9L1814.4 360.8ZM1786.2 410V188H1817.1V410H1786.2ZM1892.4 410L1833 340.7L1854.9 320.6L1932 410H1892.4ZM1955.84 410V188H1986.74V410H1955.84ZM2052.54 479L2084.34 405.5L2084.64 430.1L2006.04 252.5H2042.04L2091.24 368.3C2092.24 370.3 2093.44 373.4 2094.84 377.6C2096.24 381.6 2097.44 385.6 2098.44 389.6L2090.64 391.4C2092.24 387.2 2093.74 383 2095.14 378.8C2096.74 374.6 2098.24 370.4 2099.64 366.2L2140.74 252.5H2177.34L2112.54 410L2085.84 479H2052.54ZM1032.7 785V587.3H1063.6V785H1032.7ZM999.998 657.5V627.5H1100.2V657.5H999.998ZM1197.67 788C1182.27 788 1168.47 784.5 1156.27 777.5C1144.27 770.3 1134.77 760.6 1127.77 748.4C1120.77 736 1117.27 721.9 1117.27 706.1C1117.27 690.3 1120.77 676.3 1127.77 664.1C1134.77 651.7 1144.27 642 1156.27 635C1168.47 627.8 1182.27 624.2 1197.67 624.2C1212.87 624.2 1226.47 627.8 1238.47 635C1250.67 642 1260.27 651.7 1267.27 664.1C1274.27 676.3 1277.77 690.3 1277.77 706.1C1277.77 721.9 1274.27 736 1267.27 748.4C1260.27 760.6 1250.67 770.3 1238.47 777.5C1226.47 784.5 1212.87 788 1197.67 788ZM1197.67 759.8C1207.07 759.8 1215.47 757.5 1222.87 752.9C1230.27 748.1 1236.07 741.7 1240.27 733.7C1244.47 725.5 1246.47 716.3 1246.27 706.1C1246.47 695.7 1244.47 686.5 1240.27 678.5C1236.07 670.3 1230.27 663.9 1222.87 659.3C1215.47 654.7 1207.07 652.4 1197.67 652.4C1188.27 652.4 1179.77 654.8 1172.17 659.6C1164.77 664.2 1158.97 670.6 1154.77 678.8C1150.57 686.8 1148.57 695.9 1148.77 706.1C1148.57 716.3 1150.57 725.5 1154.77 733.7C1158.97 741.7 1164.77 748.1 1172.17 752.9C1179.77 757.5 1188.27 759.8 1197.67 759.8ZM1377.14 788C1362.74 788 1349.84 784.5 1338.44 777.5C1327.24 770.3 1318.34 760.6 1311.74 748.4C1305.14 736 1301.84 721.9 1301.84 706.1C1301.84 690.3 1305.04 676.3 1311.44 664.1C1318.04 651.7 1326.94 642 1338.14 635C1349.34 627.8 1362.04 624.2 1376.24 624.2C1384.04 624.2 1391.54 625.5 1398.74 628.1C1406.14 630.5 1412.74 633.9 1418.54 638.3C1424.34 642.5 1428.84 647.2 1432.04 652.4C1435.44 657.4 1437.14 662.5 1437.14 667.7L1428.14 668.3V563H1459.04V785H1428.14V747.5H1434.14C1434.14 752.3 1432.54 757.1 1429.34 761.9C1426.14 766.5 1421.84 770.8 1416.44 774.8C1411.24 778.8 1405.14 782 1398.14 784.4C1391.34 786.8 1384.34 788 1377.14 788ZM1381.34 761.3C1390.74 761.3 1399.04 758.9 1406.24 754.1C1413.44 749.3 1419.04 742.8 1423.04 734.6C1427.24 726.2 1429.34 716.7 1429.34 706.1C1429.34 695.5 1427.24 686.1 1423.04 677.9C1419.04 669.5 1413.44 662.9 1406.24 658.1C1399.04 653.3 1390.74 650.9 1381.34 650.9C1371.94 650.9 1363.64 653.3 1356.44 658.1C1349.24 662.9 1343.54 669.5 1339.34 677.9C1335.34 686.1 1333.34 695.5 1333.34 706.1C1333.34 716.7 1335.34 726.2 1339.34 734.6C1343.54 742.8 1349.24 749.3 1356.44 754.1C1363.64 758.9 1371.94 761.3 1381.34 761.3ZM1572.38 788C1556.98 788 1543.18 784.5 1530.98 777.5C1518.98 770.3 1509.48 760.6 1502.48 748.4C1495.48 736 1491.98 721.9 1491.98 706.1C1491.98 690.3 1495.48 676.3 1502.48 664.1C1509.48 651.7 1518.98 642 1530.98 635C1543.18 627.8 1556.98 624.2 1572.38 624.2C1587.58 624.2 1601.18 627.8 1613.18 635C1625.38 642 1634.98 651.7 1641.98 664.1C1648.98 676.3 1652.48 690.3 1652.48 706.1C1652.48 721.9 1648.98 736 1641.98 748.4C1634.98 760.6 1625.38 770.3 1613.18 777.5C1601.18 784.5 1587.58 788 1572.38 788ZM1572.38 759.8C1581.78 759.8 1590.18 757.5 1597.58 752.9C1604.98 748.1 1610.78 741.7 1614.98 733.7C1619.18 725.5 1621.18 716.3 1620.98 706.1C1621.18 695.7 1619.18 686.5 1614.98 678.5C1610.78 670.3 1604.98 663.9 1597.58 659.3C1590.18 654.7 1581.78 652.4 1572.38 652.4C1562.98 652.4 1554.48 654.8 1546.88 659.6C1539.48 664.2 1533.68 670.6 1529.48 678.8C1525.28 686.8 1523.28 695.9 1523.48 706.1C1523.28 716.3 1525.28 725.5 1529.48 733.7C1533.68 741.7 1539.48 748.1 1546.88 752.9C1554.48 757.5 1562.98 759.8 1572.38 759.8ZM1770.83 785V563H1801.73V785H1770.83ZM1850.62 785V627.5H1881.52V785H1850.62ZM1865.62 592.7C1859.02 592.7 1853.92 591 1850.32 587.6C1846.72 584.2 1844.92 579.4 1844.92 573.2C1844.92 567.4 1846.72 562.7 1850.32 559.1C1854.12 555.5 1859.22 553.7 1865.62 553.7C1872.22 553.7 1877.32 555.4 1880.92 558.8C1884.52 562.2 1886.32 567 1886.32 573.2C1886.32 579 1884.42 583.7 1880.62 587.3C1877.02 590.9 1872.02 592.7 1865.62 592.7ZM1981.52 788C1968.32 788 1956.42 785.7 1945.82 781.1C1935.22 776.5 1926.42 769.7 1919.42 760.7L1940.42 742.7C1946.42 749.7 1952.92 754.8 1959.92 758C1967.12 761 1975.22 762.5 1984.22 762.5C1987.82 762.5 1991.12 762.1 1994.12 761.3C1997.32 760.3 2000.02 758.9 2002.22 757.1C2004.62 755.3 2006.42 753.2 2007.62 750.8C2008.82 748.2 2009.42 745.4 2009.42 742.4C2009.42 737.2 2007.52 733 2003.72 729.8C2001.72 728.4 1998.52 726.9 1994.12 725.3C1989.92 723.5 1984.42 721.7 1977.62 719.9C1966.02 716.9 1956.52 713.5 1949.12 709.7C1941.72 705.9 1936.02 701.6 1932.02 696.8C1929.02 693 1926.82 688.9 1925.42 684.5C1924.02 679.9 1923.32 674.9 1923.32 669.5C1923.32 662.9 1924.72 656.9 1927.52 651.5C1930.52 645.9 1934.52 641.1 1939.52 637.1C1944.72 632.9 1950.72 629.7 1957.52 627.5C1964.52 625.3 1971.92 624.2 1979.72 624.2C1987.12 624.2 1994.42 625.2 2001.62 627.2C2009.02 629.2 2015.82 632.1 2022.02 635.9C2028.22 639.7 2033.42 644.2 2037.62 649.4L2019.92 668.9C2016.12 665.1 2011.92 661.8 2007.32 659C2002.92 656 1998.42 653.7 1993.82 652.1C1989.22 650.5 1985.02 649.7 1981.22 649.7C1977.02 649.7 1973.22 650.1 1969.82 650.9C1966.42 651.7 1963.52 652.9 1961.12 654.5C1958.92 656.1 1957.22 658.1 1956.02 660.5C1954.82 662.9 1954.22 665.6 1954.22 668.6C1954.42 671.2 1955.02 673.7 1956.02 676.1C1957.22 678.3 1958.82 680.2 1960.82 681.8C1963.02 683.4 1966.32 685.1 1970.72 686.9C1975.12 688.7 1980.72 690.4 1987.52 692C1997.52 694.6 2005.72 697.5 2012.12 700.7C2018.72 703.7 2023.92 707.2 2027.72 711.2C2031.72 715 2034.52 719.4 2036.12 724.4C2037.72 729.4 2038.52 735 2038.52 741.2C2038.52 750.2 2035.92 758.3 2030.72 765.5C2025.72 772.5 2018.92 778 2010.32 782C2001.72 786 1992.12 788 1981.52 788ZM2092.37 785V587.3H2123.27V785H2092.37ZM2059.67 657.5V627.5H2159.87V657.5H2059.67Z" fill="url(#paint5_linear_15_2)"/>
<defs>
<filter id="filter0_d_15_2" x="146.228" y="204.161" width="377.975" height="211.064" filterUnits="userSpaceOnUse" color-interpolation-filters="sRGB">
<feFlood flood-opacity="0" result="BackgroundImageFix"/>
<feColorMatrix in="SourceAlpha" type="matrix" values="0 0 0 0 0 0 0 0 0 0 0 0 0 0 0 0 0 0 127 0" result="hardAlpha"/>
<feOffset dy="9"/>
<feGaussianBlur stdDeviation="16.75"/>
<feComposite in2="hardAlpha" operator="out"/>
<feColorMatrix type="matrix" values="0 0 0 0 0.1375 0 0 0 0 0.136354 0 0 0 0 0.136354 0 0 0 0.4 0"/>
<feBlend mode="normal" in2="BackgroundImageFix" result="effect1_dropShadow_15_2"/>
<feBlend mode="normal" in="SourceGraphic" in2="effect1_dropShadow_15_2" result="shape"/>
</filter>
<filter id="filter1_d_15_2" x="185.228" y="302.063" width="451.445" height="233.641" filterUnits="userSpaceOnUse" color-interpolation-filters="sRGB">
<feFlood flood-opacity="0" result="BackgroundImageFix"/>
<feColorMatrix in="SourceAlpha" type="matrix" values="0 0 0 0 0 0 0 0 0 0 0 0 0 0 0 0 0 0 127 0" result="hardAlpha"/>
<feOffset dy="9"/>
<feGaussianBlur stdDeviation="16.75"/>
<feComposite in2="hardAlpha" operator="out"/>
<feColorMatrix type="matrix" values="0 0 0 0 0.1375 0 0 0 0 0.136354 0 0 0 0 0.136354 0 0 0 0.4 0"/>
<feBlend mode="normal" in2="BackgroundImageFix" result="effect1_dropShadow_15_2"/>
<feBlend mode="normal" in="SourceGraphic" in2="effect1_dropShadow_15_2" result="shape"/>
</filter>
<filter id="filter2_d_15_2" x="225.228" y="474.169" width="299.528" height="186.957" filterUnits="userSpaceOnUse" color-interpolation-filters="sRGB">
<feFlood flood-opacity="0" result="BackgroundImageFix"/>
<feColorMatrix in="SourceAlpha" type="matrix" values="0 0 0 0 0 0 0 0 0 0 0 0 0 0 0 0 0 0 127 0" result="hardAlpha"/>
<feOffset dy="9"/>
<feGaussianBlur stdDeviation="16.75"/>
<feComposite in2="hardAlpha" operator="out"/>
<feColorMatrix type="matrix" values="0 0 0 0 0.1375 0 0 0 0 0.136354 0 0 0 0 0.136354 0 0 0 0.4 0"/>
<feBlend mode="normal" in2="BackgroundImageFix" result="effect1_dropShadow_15_2"/>
<feBlend mode="normal" in="SourceGraphic" in2="effect1_dropShadow_15_2" result="shape"/>
</filter>
<linearGradient id="paint0_linear_15_2" x1="105.5" y1="233" x2="977.5" y2="769.5" gradientUnits="userSpaceOnUse">
<stop offset="0.276042" stop-color="#A63D40"/>
<stop offset="1" stop-color="#892E31"/>
</linearGradient>
<linearGradient id="paint1_linear_15_2" x1="604.5" y1="222" x2="777" y2="739.5" gradientUnits="userSpaceOnUse">
<stop stop-color="#E5E3F1"/>
<stop offset="1" stop-color="#BE7F81"/>
</linearGradient>
<linearGradient id="paint2_linear_15_2" x1="725.718" y1="116.636" x2="756.252" y2="229.57" gradientUnits="userSpaceOnUse">
<stop stop-color="#E5E3F1"/>
<stop offset="1" stop-color="#BE7F81"/>
</linearGradient>
<linearGradient id="paint3_linear_15_2" x1="707.855" y1="239.101" x2="738.925" y2="345.246" gradientUnits="userSpaceOnUse">
<stop stop-color="#E5E3F1"/>
<stop offset="1" stop-color="#BE7F81"/>
</linearGradient>
<linearGradient id="paint4_linear_15_2" x1="452.999" y1="456.605" x2="482.287" y2="561.063" gradientUnits="userSpaceOnUse">
<stop stop-color="#E5E3F1"/>
<stop offset="1" stop-color="#BE7F81"/>
</linearGradient>
<linearGradient id="paint5_linear_15_2" x1="1574.5" y1="74" x2="1579" y2="792" gradientUnits="userSpaceOnUse">
<stop stop-color="white"/>
<stop offset="1" stop-color="#A82929"/>
</linearGradient>
</defs>
</svg>
